<?xml version="1.0" encoding="UTF-8" standalone="no"?>
<!-- Created with Inkscape (http://www.inkscape.org/) -->

<svg
   xmlns:dc="http://purl.org/dc/elements/1.1/"
   xmlns:cc="http://creativecommons.org/ns#"
   xmlns:rdf="http://www.w3.org/1999/02/22-rdf-syntax-ns#"
   xmlns:svg="http://www.w3.org/2000/svg"
   xmlns="http://www.w3.org/2000/svg"
   xmlns:sodipodi="http://sodipodi.sourceforge.net/DTD/sodipodi-0.dtd"
   xmlns:inkscape="http://www.inkscape.org/namespaces/inkscape"
   width="210mm"
   height="297mm"
   viewBox="0 0 210 297"
   version="1.1"
   id="svg8"
   inkscape:version="0.92.4 (5da689c313, 2019-01-14)"
   sodipodi:docname="drawing.svg">
  <defs
     id="defs2" />
  <sodipodi:namedview
     id="base"
     pagecolor="#ffffff"
     bordercolor="#666666"
     borderopacity="1.0"
     inkscape:pageopacity="0.0"
     inkscape:pageshadow="2"
     inkscape:zoom="1.4"
     inkscape:cx="442.75669"
     inkscape:cy="692.50071"
     inkscape:document-units="mm"
     inkscape:current-layer="layer1"
     showgrid="false"
     inkscape:window-width="1920"
     inkscape:window-height="986"
     inkscape:window-x="-11"
     inkscape:window-y="-11"
     inkscape:window-maximized="1"
     inkscape:snap-grids="true" />
  <metadata
     id="metadata5">
    <rdf:RDF>
      <cc:Work
         rdf:about="">
        <dc:format>image/svg+xml</dc:format>
        <dc:type
           rdf:resource="http://purl.org/dc/dcmitype/StillImage" />
        <dc:title></dc:title>
      </cc:Work>
    </rdf:RDF>
  </metadata>
  <g
     inkscape:label="Layer 1"
     inkscape:groupmode="layer"
     id="layer1">
    <flowRoot
       xml:space="preserve"
       id="flowRoot3713"
       style="fill:black;fill-opacity:1;stroke:none;font-family:'Microsoft Himalaya';font-style:normal;font-weight:normal;font-size:96px;line-height:1.25;letter-spacing:0px;word-spacing:0px;-inkscape-font-specification:'Microsoft Himalaya';font-stretch:normal;font-variant:normal;"><flowRegion
         id="flowRegion3715"
         style="-inkscape-font-specification:'Microsoft Himalaya';font-family:'Microsoft Himalaya';font-weight:normal;font-style:normal;font-stretch:normal;font-variant:normal;font-size:96px;"><rect
           id="rect3717"
           width="574.28571"
           height="74.285713"
           x="97.14286"
           y="253.94826"
           style="-inkscape-font-specification:'Microsoft Himalaya';font-family:'Microsoft Himalaya';font-weight:normal;font-style:normal;font-stretch:normal;font-variant:normal;font-size:96px;" /></flowRegion><flowPara
         id="flowPara3719"></flowPara></flowRoot>    <text
       xml:space="preserve"
       style="font-style:normal;font-weight:normal;font-size:25.4px;line-height:1.25;font-family:Garamond;letter-spacing:0px;word-spacing:0px;fill:#000000;fill-opacity:1;stroke:none;stroke-width:0.26458332;-inkscape-font-specification:Garamond;font-stretch:normal;font-variant:normal;"
       x="73.327377"
       y="80.041664"
       id="text3723"><tspan
         sodipodi:role="line"
         id="tspan3721"
         x="73.327377"
         y="80.041664"
         style="stroke-width:0.26458332;-inkscape-font-specification:Garamond;font-family:Garamond;font-weight:normal;font-style:normal;font-stretch:normal;font-variant:normal;font-size:25.4px;">OrderStack</tspan></text>
    <flowRoot
       xml:space="preserve"
       id="flowRoot3774"
       style="fill:black;fill-opacity:1;stroke:none;font-family:sans-serif;font-style:normal;font-weight:normal;font-size:40px;line-height:1.25;letter-spacing:0px;word-spacing:0px"><flowRegion
         id="flowRegion3776"><rect
           id="rect3778"
           width="38.57143"
           height="116.42857"
           x="217.14285"
           y="349.66254" /></flowRegion><flowPara
         id="flowPara3780"></flowPara></flowRoot>    <flowRoot
       xml:space="preserve"
       id="flowRoot3782"
       style="fill:black;fill-opacity:1;stroke:none;font-family:sans-serif;font-style:normal;font-weight:normal;font-size:40px;line-height:1.25;letter-spacing:0px;word-spacing:0px"><flowRegion
         id="flowRegion3784"><rect
           id="rect3786"
           width="277.85715"
           height="639.28571"
           x="107.14286"
           y="171.8054" /></flowRegion><flowPara
         id="flowPara3788"></flowPara></flowRoot>    <text
       xml:space="preserve"
       style="font-style:normal;font-weight:normal;font-size:10.58333302px;line-height:1.25;font-family:sans-serif;letter-spacing:0px;word-spacing:0px;fill:#000000;fill-opacity:1;stroke:none;stroke-width:0.26458332"
       x="76.351196"
       y="88.735115"
       id="text3792"><tspan
         sodipodi:role="line"
         id="tspan3790"
         x="76.351196"
         y="88.735115"
         style="font-style:normal;font-variant:normal;font-weight:normal;font-stretch:normal;font-size:7.76111126px;font-family:Garamond;-inkscape-font-specification:Garamond;stroke-width:0.26458332">SOFTWARE AT YOUR SERVICE</tspan></text>
    <g
       id="g3891"
       transform="matrix(0.06451884,3.1083186e-4,-3.1069323e-4,0.06454763,37.609728,57.013882)">
      <g
         id="g3851">
	<rect
   id="rect3847"
   data-original="#58565C"
   height="52.349998"
   width="132.53"
   style="fill:#58565c"
   y="399.23999"
   x="189.73" />

	<rect
   id="rect3849"
   data-original="#58565C"
   height="51.400002"
   width="33.130001"
   style="fill:#58565c"
   y="160.351"
   x="239.42999" />

</g>
      <path
         id="path3853"
         data-original="#FFD151"
         d="m 305.699,152.85 h -99.4 c -4.142,0 -7.5,3.357 -7.5,7.5 0,4.143 3.358,7.5 7.5,7.5 h 99.4 c 4.142,0 7.5,-3.357 7.5,-7.5 0,-4.143 -3.358,-7.5 -7.5,-7.5 z"
         style="fill:#ffd151"
         inkscape:connector-curvature="0" />
      <g
         id="g3869">
	<path
   id="path3855"
   data-old_color="#D83D09"
   class="active-path"
   data-original="#B6E3EE"
   d="m 255.999,3.75 c -4.142,0 -7.5,3.357 -7.5,7.5 v 33.132 c 0,4.143 3.358,7.5 7.5,7.5 4.142,0 7.5,-3.357 7.5,-7.5 V 11.249 c 0,-4.141 -3.358,-7.499 -7.5,-7.499 z"
   style="fill:#da3d09"
   inkscape:connector-curvature="0" />

	<path
   id="path3857"
   data-old_color="#D83D09"
   class="active-path"
   data-original="#B6E3EE"
   d="m 138.245,40.792 c -2.071,-3.588 -6.659,-4.815 -10.245,-2.745 -3.587,2.071 -4.816,6.658 -2.745,10.245 l 16.566,28.693 c 1.389,2.406 3.91,3.751 6.502,3.751 1.272,0 2.562,-0.324 3.743,-1.006 3.587,-2.071 4.816,-6.658 2.745,-10.245 z"
   style="fill:#da3d09"
   inkscape:connector-curvature="0" />

	<path
   id="path3859"
   data-old_color="#D83D09"
   class="active-path"
   data-original="#B6E3EE"
   d="M 73.236,145.571 44.543,129.005 c -3.588,-2.071 -8.174,-0.843 -10.245,2.745 -2.071,3.587 -0.842,8.174 2.745,10.245 l 28.693,16.566 c 1.181,0.682 2.471,1.006 3.743,1.006 2.592,0 5.113,-1.345 6.502,-3.751 2.071,-3.587 0.842,-8.174 -2.745,-10.245 z"
   style="fill:#da3d09"
   inkscape:connector-curvature="0" />

	<path
   id="path3861"
   data-old_color="#D83D09"
   class="active-path"
   data-original="#B6E3EE"
   d="M 40.632,252.249 H 7.5 c -4.142,0 -7.5,3.357 -7.5,7.5 0,4.143 3.358,7.5 7.5,7.5 h 33.132 c 4.142,0 7.5,-3.357 7.5,-7.5 0,-4.142 -3.358,-7.5 -7.5,-7.5 z"
   style="fill:#da3d09"
   inkscape:connector-curvature="0" />

	<path
   id="path3863"
   data-old_color="#D83D09"
   class="active-path"
   data-original="#B6E3EE"
   d="m 504.499,252.249 h -33.132 c -4.142,0 -7.5,3.357 -7.5,7.5 0,4.143 3.358,7.5 7.5,7.5 h 33.132 c 4.142,0 7.5,-3.357 7.5,-7.5 0,-4.142 -3.358,-7.5 -7.5,-7.5 z"
   style="fill:#da3d09"
   inkscape:connector-curvature="0" />

	<path
   id="path3865"
   data-old_color="#D83D09"
   class="active-path"
   data-original="#B6E3EE"
   d="m 477.701,131.749 c -2.071,-3.588 -6.658,-4.815 -10.245,-2.745 l -28.693,16.566 c -3.587,2.071 -4.816,6.658 -2.745,10.245 1.389,2.406 3.91,3.751 6.502,3.751 1.272,0 2.562,-0.324 3.743,-1.006 l 28.693,-16.566 c 3.587,-2.071 4.816,-6.658 2.745,-10.245 z"
   style="fill:#da3d09"
   inkscape:connector-curvature="0" />

	<path
   id="path3867"
   data-old_color="#D83D09"
   class="active-path"
   data-original="#B6E3EE"
   d="m 383.999,38.047 c -3.587,-2.07 -8.174,-0.843 -10.245,2.745 l -16.566,28.693 c -2.071,3.587 -0.842,8.174 2.745,10.245 1.181,0.682 2.471,1.006 3.743,1.006 2.592,0 5.113,-1.345 6.502,-3.751 l 16.566,-28.693 c 2.071,-3.588 0.842,-8.174 -2.745,-10.245 z"
   style="fill:#da3d09"
   inkscape:connector-curvature="0" />

</g>
      <path
         id="path3871"
         data-original="#FFD151"
         d="m 90.331,384.328 v -25.18 c 0,-91.495 74.171,-165.666 165.666,-165.666 91.495,0 165.666,74.171 165.666,165.666 v 25.18 z"
         style="fill:#ffd151"
         inkscape:connector-curvature="0" />
      <g
         id="g3877">
	<path
   id="path3873"
   data-original="#F79B4A"
   d="m 255.998,193.482 c -3.359,0 -6.691,0.112 -10,0.309 86.837,5.172 155.666,77.221 155.666,165.357 v 25.18 h 20 v -25.18 c 0,-91.494 -74.171,-165.666 -165.666,-165.666 z"
   style="fill:#f79b4a"
   inkscape:connector-curvature="0" />

	<path
   id="path3875"
   data-original="#F79B4A"
   d="m 73.766,402.809 v -21.136 c 0,-3.314 2.686,-6 6,-6 h 352.467 c 3.314,0 6,2.686 6,6 v 21.136 c 0,3.314 -2.686,6 -6,6 H 79.766 c -3.314,0 -6,-2.687 -6,-6 z"
   style="fill:#f79b4a"
   inkscape:connector-curvature="0" />

</g>
      <path
         id="path3879"
         data-original="#F27938"
         d="m 432.233,375.672 h -20 c 3.314,0 6,2.686 6,6 v 21.137 c 0,3.313 -2.686,6 -6,6 h 20 c 3.314,0 6,-2.687 6,-6 v -21.137 c 0,-3.314 -2.687,-6 -6,-6 z"
         style="fill:#f27938"
         inkscape:connector-curvature="0" />
      <path
         id="path3881"
         data-original="#985335"
         d="M 73.766,483.748 V 447.98 c 0,-3.314 2.686,-6 6,-6 h 352.467 c 3.314,0 6,2.686 6,6 v 35.768 H 73.766 Z"
         style="fill:#985335"
         inkscape:connector-curvature="0" />
      <g
         id="g3887">
	<path
   id="path3883"
   data-original="#87462A"
   d="m 432.233,441.981 h -20 c 3.314,0 6,2.686 6,6 v 35.768 h 20 v -35.768 c 0,-3.314 -2.687,-6 -6,-6 z"
   style="fill:#87462a"
   inkscape:connector-curvature="0" />

	<path
   id="path3885"
   data-original="#87462A"
   d="M 450.114,475.117 H 60.908 c -2.273,0 -4.35,1.284 -5.367,3.317 l -10.566,21.132 c -1.995,3.989 0.906,8.683 5.367,8.683 h 405.056 c 3.903,0 6.768,-3.668 5.821,-7.455 l -5.283,-21.132 c -0.669,-2.671 -3.069,-4.545 -5.822,-4.545 z"
   style="fill:#87462a"
   inkscape:connector-curvature="0" />

</g>
      <path
         id="path3889"
         class=""
         data-original="#693621"
         d="m 461.218,500.794 -5.283,-21.132 c -0.668,-2.671 -3.068,-4.545 -5.821,-4.545 h -20 c 2.753,0 5.153,1.874 5.821,4.545 l 5.284,21.132 c 0.947,3.787 -1.917,7.455 -5.821,7.455 h 20 c 3.903,0 6.767,-3.668 5.82,-7.455 z"
         style="fill:#693621"
         inkscape:connector-curvature="0" />
    </g>
  </g>
</svg>
